<svg width="38" height="38" viewBox="0 0 38 38" fill="none" xmlns="http://www.w3.org/2000/svg">
<path d="M9.98719 27.5865H18.5128V27.3612C18.5128 27.0021 18.4142 26.6693 18.2171 26.363C18.02 26.0567 17.7451 25.819 17.3923 25.65C16.8845 25.4328 16.3703 25.2699 15.8498 25.1613C15.3293 25.0527 14.796 24.9984 14.25 24.9984C13.704 24.9984 13.1707 25.0527 12.6502 25.1613C12.1297 25.2699 11.6155 25.4328 11.1077 25.65C10.7549 25.819 10.48 26.0567 10.2829 26.363C10.0858 26.6693 9.98719 27.0021 9.98719 27.3612V27.5865ZM22.867 25.1507H27.7997C28.002 25.1507 28.1693 25.0846 28.3016 24.9526C28.4339 24.8206 28.5 24.6536 28.5 24.4517C28.5 24.2498 28.4339 24.0824 28.3016 23.9494C28.1693 23.8165 28.002 23.75 27.7997 23.75H22.867C22.6647 23.75 22.4974 23.816 22.3651 23.948C22.2328 24.08 22.1667 24.247 22.1667 24.4489C22.1667 24.6508 22.2328 24.8182 22.3651 24.9512C22.4974 25.0842 22.6647 25.1507 22.867 25.1507ZM14.2428 23.75C14.7652 23.75 15.2117 23.5672 15.5821 23.2015C15.9526 22.8358 16.1378 22.3918 16.1378 21.8694C16.1378 21.3469 15.955 20.9005 15.5893 20.5301C15.2236 20.1596 14.7796 19.9743 14.2572 19.9743C13.7348 19.9743 13.2883 20.1572 12.9179 20.5229C12.5474 20.8886 12.3622 21.3326 12.3622 21.855C12.3622 22.3774 12.545 22.8239 12.9107 23.1943C13.2764 23.5648 13.7204 23.75 14.2428 23.75ZM22.867 21.375H27.7997C28.002 21.375 28.1693 21.309 28.3016 21.177C28.4339 21.045 28.5 20.878 28.5 20.6761C28.5 20.4742 28.4339 20.3068 28.3016 20.1738C28.1693 20.0408 28.002 19.9743 27.7997 19.9743H22.867C22.6647 19.9743 22.4974 20.0404 22.3651 20.1724C22.2328 20.3044 22.1667 20.4714 22.1667 20.6733C22.1667 20.8752 22.2328 21.0426 22.3651 21.1756C22.4974 21.3085 22.6647 21.375 22.867 21.375ZM7.30768 33.25C6.57895 33.25 5.97049 33.0059 5.48229 32.5177C4.9941 32.0295 4.75 31.4211 4.75 30.6923V15.2243C4.75 14.4956 4.9941 13.8872 5.48229 13.399C5.97049 12.9108 6.57895 12.6667 7.30768 12.6667H15.8333V6.33333C15.8333 5.89792 15.9884 5.52517 16.2984 5.2151C16.6085 4.90503 16.9812 4.75 17.4167 4.75H20.5833C21.0187 4.75 21.3915 4.90503 21.7016 5.2151C22.0116 5.52517 22.1667 5.89792 22.1667 6.33333V12.6667H30.6923C31.4211 12.6667 32.0295 12.9108 32.5177 13.399C33.0059 13.8872 33.25 14.4956 33.25 15.2243V30.6923C33.25 31.4211 33.0059 32.0295 32.5177 32.5177C32.0295 33.0059 31.4211 33.25 30.6923 33.25H7.30768ZM7.30768 31.6667H30.6923C30.9765 31.6667 31.2099 31.5753 31.3926 31.3926C31.5753 31.2099 31.6667 30.9765 31.6667 30.6923V15.2243C31.6667 14.9402 31.5753 14.7067 31.3926 14.524C31.2099 14.3413 30.9765 14.25 30.6923 14.25H22.1667V15.4679C22.1667 15.8922 22.0088 16.2622 21.6932 16.5778C21.3775 16.8935 21.0076 17.0513 20.5833 17.0513H17.4167C16.9924 17.0513 16.6225 16.8935 16.3068 16.5778C15.9912 16.2622 15.8333 15.8922 15.8333 15.4679V14.25H7.30768C7.0235 14.25 6.79006 14.3413 6.60737 14.524C6.42468 14.7067 6.33333 14.9402 6.33333 15.2243V30.6923C6.33333 30.9765 6.42468 31.2099 6.60737 31.3926C6.79006 31.5753 7.0235 31.6667 7.30768 31.6667ZM17.4167 15.4679H20.5833V6.33333H17.4167V15.4679Z" fill="white"/>
</svg>
