<svg width="24" height="24" viewBox="0 0 24 24" fill="none" xmlns="http://www.w3.org/2000/svg">
<path d="M6.03273 11.1262L11.4712 5.68778C11.5686 5.59033 11.6196 5.47558 11.6241 5.34353C11.6286 5.21148 11.5757 5.09033 11.4654 4.98008C11.3552 4.87366 11.2372 4.8195 11.1116 4.81758C10.9859 4.81565 10.868 4.86981 10.7577 4.98008L4.67695 11.0609C4.58977 11.148 4.52855 11.2371 4.4933 11.3282C4.45805 11.4192 4.44043 11.5185 4.44043 11.6262C4.44043 11.7339 4.45805 11.8333 4.4933 11.9243C4.52855 12.0153 4.58977 12.1044 4.67695 12.1916L10.7577 18.2724C10.8513 18.366 10.9651 18.416 11.0991 18.4224C11.2331 18.4288 11.3552 18.3788 11.4654 18.2724C11.5757 18.1621 11.6308 18.0432 11.6308 17.9157C11.6308 17.7881 11.5757 17.6692 11.4654 17.5589L6.03273 12.1262L21.2097 12.3583C21.352 12.3583 21.4709 12.3105 21.5664 12.215C21.6619 12.1195 21.7097 12.0006 21.7097 11.8583C21.7097 11.716 21.6619 11.5971 21.5664 11.5016C21.4709 11.406 21.352 11.3583 21.2097 11.3583L6.03273 11.1262Z" fill="white"/>
</svg>
