<svg width="24" height="24" viewBox="0 0 24 24" fill="none" xmlns="http://www.w3.org/2000/svg">
<path d="M17.9673 11.1262L12.5288 5.68778C12.4314 5.59033 12.3804 5.47558 12.3759 5.34353C12.3714 5.21148 12.4243 5.09033 12.5346 4.98008C12.6448 4.87366 12.7628 4.8195 12.8884 4.81758C13.0141 4.81565 13.132 4.86981 13.2423 4.98008L19.323 11.0609C19.4102 11.148 19.4714 11.2371 19.5067 11.3282C19.5419 11.4192 19.5596 11.5185 19.5596 11.6262C19.5596 11.7339 19.5419 11.8333 19.5067 11.9243C19.4714 12.0153 19.4102 12.1044 19.323 12.1916L13.2423 18.2724C13.1487 18.366 13.0349 18.416 12.9009 18.4224C12.7669 18.4288 12.6448 18.3788 12.5346 18.2724C12.4243 18.1621 12.3692 18.0432 12.3692 17.9157C12.3692 17.7881 12.4243 17.6692 12.5346 17.5589L17.9673 12.1262L2.79034 12.3583C2.64803 12.3583 2.52912 12.3105 2.43362 12.215C2.3381 12.1195 2.29034 12.0006 2.29034 11.8583C2.29034 11.716 2.3381 11.5971 2.43362 11.5016C2.52912 11.406 2.64803 11.3583 2.79034 11.3583L17.9673 11.1262Z" fill="white"/>
</svg>
