<svg width="24" height="24" viewBox="0 0 24 24" fill="none" xmlns="http://www.w3.org/2000/svg">
<path d="M6.56731 8.39422V7.14422H22V8.39422H6.56731ZM6.56731 12.625V11.375H22V12.625H6.56731ZM6.56731 16.8558V15.6058H22V16.8558H6.56731ZM2.76922 8.53847C2.55128 8.53847 2.36859 8.46245 2.22116 8.31041C2.07372 8.15836 2 7.96996 2 7.74519C2 7.53404 2.07372 7.35706 2.22116 7.21425C2.36859 7.07142 2.55128 7 2.76922 7C2.98718 7 3.16988 7.07142 3.31731 7.21425C3.46475 7.35706 3.53847 7.53404 3.53847 7.74519C3.53847 7.96996 3.46475 8.15836 3.31731 8.31041C3.16988 8.46245 2.98718 8.53847 2.76922 8.53847ZM2.76922 12.7452C2.55128 12.7452 2.36859 12.6738 2.22116 12.5309C2.07372 12.3881 2 12.2111 2 12C2 11.758 2.07372 11.5653 2.22116 11.4219C2.36859 11.2784 2.55128 11.2067 2.76922 11.2067C2.98718 11.2067 3.16988 11.2784 3.31731 11.4219C3.46475 11.5653 3.53847 11.758 3.53847 12C3.53847 12.2111 3.46475 12.3881 3.31731 12.5309C3.16988 12.6738 2.98718 12.7452 2.76922 12.7452ZM2.76922 17C2.55128 17 2.36859 16.924 2.22116 16.7719C2.07372 16.6199 2 16.4315 2 16.2067C2 15.9956 2.07372 15.8186 2.22116 15.6758C2.36859 15.5329 2.55128 15.4615 2.76922 15.4615C2.98718 15.4615 3.16988 15.5329 3.31731 15.6758C3.46475 15.8186 3.53847 15.9956 3.53847 16.2067C3.53847 16.4315 3.46475 16.6199 3.31731 16.7719C3.16988 16.924 2.98718 17 2.76922 17Z" fill="white"/>
</svg>
