<svg width="38" height="38" viewBox="0 0 38 38" fill="none" xmlns="http://www.w3.org/2000/svg">
<rect width="38" height="38" rx="19" fill="#282828"/>
<path d="M26.5996 19.7071V24.947H23.5323V20.0266C23.5323 18.8125 23.085 17.9817 21.9987 17.9817C21.168 17.9817 20.6568 18.5569 20.4651 19.0681C20.4012 19.2598 20.3373 19.5154 20.3373 19.8349V24.947H17.27C17.27 24.947 17.3339 16.6398 17.27 15.8091H20.3373V17.0871C20.7207 16.4481 21.4875 15.5535 23.085 15.5535C25.066 15.5535 26.5996 16.8954 26.5996 19.7071ZM14.0749 11.3999C13.0525 11.3999 12.3496 12.1028 12.3496 12.9974C12.3496 13.8921 12.9886 14.595 14.011 14.595C15.0974 14.595 15.7364 13.8921 15.7364 12.9974C15.8003 12.0389 15.1613 11.3999 14.0749 11.3999ZM12.5413 24.947H15.6086V15.8091H12.5413V24.947Z" fill="white"/>
</svg>
