<svg width="16" height="15" viewBox="0 0 16 15" fill="none" xmlns="http://www.w3.org/2000/svg">
<path d="M8 6.80234C7.05714 6.80234 6.25 6.46931 5.57857 5.80325C4.90714 5.13719 4.57143 4.3365 4.57143 3.40118C4.57143 2.46585 4.90714 1.66515 5.57857 0.999089C6.25 0.33303 7.05714 0 8 0C8.94286 0 9.75 0.33303 10.4214 0.999089C11.0929 1.66515 11.4286 2.46585 11.4286 3.40118C11.4286 4.3365 11.0929 5.13719 10.4214 5.80325C9.75 6.46931 8.94286 6.80234 8 6.80234ZM0 13.8227V13.1337C0 12.6657 0.137362 12.2278 0.412086 11.8201C0.68681 11.4124 1.05641 11.0959 1.52089 10.8706C2.59927 10.3575 3.67838 9.97273 4.75823 9.71619C5.8381 9.45965 6.91869 9.33138 8 9.33138C9.08131 9.33138 10.1619 9.45965 11.2418 9.71619C12.3216 9.97273 13.4007 10.3575 14.4791 10.8706C14.9436 11.0959 15.3132 11.4124 15.5879 11.8201C15.8626 12.2278 16 12.6657 16 13.1337V13.8227C16 14.1555 15.8861 14.435 15.6583 14.661C15.4304 14.887 15.1487 15 14.8132 15H1.1868C0.851276 15 0.56959 14.887 0.341743 14.661C0.113914 14.435 0 14.1555 0 13.8227ZM1.14286 13.8663H14.8571V13.1337C14.8571 12.8823 14.7755 12.6461 14.6121 12.4251C14.4487 12.2042 14.2227 12.0174 13.9341 11.8648C12.9934 11.4128 12.0235 11.0665 11.0245 10.8259C10.0254 10.5854 9.01724 10.4651 8 10.4651C6.98276 10.4651 5.97461 10.5854 4.97554 10.8259C3.97646 11.0665 3.00659 11.4128 2.06594 11.8648C1.7773 12.0174 1.55129 12.2042 1.38791 12.4251C1.22454 12.6461 1.14286 12.8823 1.14286 13.1337V13.8663ZM8 5.66862C8.62857 5.66862 9.16667 5.4466 9.61429 5.00256C10.0619 4.55852 10.2857 4.02473 10.2857 3.40118C10.2857 2.77764 10.0619 2.24385 9.61429 1.79981C9.16667 1.35577 8.62857 1.13375 8 1.13375C7.37143 1.13375 6.83333 1.35577 6.38571 1.79981C5.9381 2.24385 5.71429 2.77764 5.71429 3.40118C5.71429 4.02473 5.9381 4.55852 6.38571 5.00256C6.83333 5.4466 7.37143 5.66862 8 5.66862Z" fill="white"/>
</svg>
