<svg width="60" height="60" viewBox="0 0 60 60" fill="none" xmlns="http://www.w3.org/2000/svg">
<path d="M10.2885 49.2306V26.5383H10.0481C8.9936 26.5383 8.097 26.1689 7.35825 25.4302C6.61946 24.6914 6.25006 23.7948 6.25006 22.7403V17.3076C6.25006 16.2531 6.61946 15.3565 7.35825 14.6177C8.097 13.879 8.9936 13.5096 10.0481 13.5096H19.178C18.8254 13.1026 18.5858 12.6442 18.4592 12.1344C18.3326 11.6247 18.2693 11.0895 18.2693 10.5288C18.2693 8.65916 18.9237 7.06997 20.2324 5.76122C21.5412 4.45247 23.1304 3.7981 25 3.7981C25.9583 3.7981 26.8461 3.99922 27.6634 4.40147C28.4808 4.80372 29.2115 5.34139 29.8557 6.01447C30.5 5.31572 31.2308 4.77164 32.0481 4.38222C32.8654 3.9928 33.7532 3.7981 34.7115 3.7981C36.5812 3.7981 38.1704 4.45247 39.4791 5.76122C40.7879 7.06997 41.4423 8.65916 41.4423 10.5288C41.4423 11.0833 41.3725 11.6105 41.2331 12.1105C41.0937 12.6105 40.8605 13.0769 40.5336 13.5096H49.9519C51.0064 13.5096 51.903 13.879 52.6418 14.6177C53.3805 15.3565 53.7499 16.2531 53.7499 17.3076V22.7403C53.7499 23.7948 53.3805 24.6914 52.6418 25.4302C51.903 26.1689 51.0064 26.5383 49.9519 26.5383H49.7115V49.2306C49.7115 50.4734 49.269 51.5373 48.384 52.4223C47.499 53.3073 46.4351 53.7498 45.1923 53.7498H14.8077C13.5649 53.7498 12.501 53.3073 11.616 52.4223C10.731 51.5373 10.2885 50.4734 10.2885 49.2306ZM34.7115 7.54797C33.867 7.54797 33.159 7.83364 32.5877 8.40497C32.0164 8.97631 31.7307 9.68424 31.7307 10.5288C31.7307 11.3734 32.0164 12.0813 32.5877 12.6526C33.159 13.2239 33.867 13.5096 34.7115 13.5096C35.5561 13.5096 36.264 13.2239 36.8353 12.6526C37.4066 12.0813 37.6923 11.3734 37.6923 10.5288C37.6923 9.68424 37.4066 8.97631 36.8353 8.40497C36.264 7.83364 35.5561 7.54797 34.7115 7.54797ZM22.0192 10.5288C22.0192 11.3734 22.3049 12.0813 22.8762 12.6526C23.4475 13.2239 24.1555 13.5096 25 13.5096C25.8445 13.5096 26.5525 13.2239 27.1238 12.6526C27.6951 12.0813 27.9808 11.3734 27.9808 10.5288C27.9808 9.68424 27.6951 8.97631 27.1238 8.40497C26.5525 7.83364 25.8445 7.54797 25 7.54797C24.1555 7.54797 23.4475 7.83364 22.8762 8.40497C22.3049 8.97631 22.0192 9.68424 22.0192 10.5288ZM10 17.2595V22.7884H28.1251V17.2595H10ZM28.1251 49.9999V26.5383H14.0384V49.2306C14.0384 49.455 14.1105 49.6393 14.2548 49.7835C14.399 49.9278 14.5833 49.9999 14.8077 49.9999H28.1251ZM31.8749 49.9999H45.1923C45.4167 49.9999 45.601 49.9278 45.7453 49.7835C45.8895 49.6393 45.9616 49.455 45.9616 49.2306V26.5383H31.8749V49.9999ZM50 22.7884V17.2595H31.8749V22.7884H50Z" fill="white"/>
</svg>
