<svg width="18" height="15" viewBox="0 0 18 15" fill="none" xmlns="http://www.w3.org/2000/svg">
<path d="M15.9682 7.12615L10.5298 1.6877C10.4323 1.59025 10.3814 1.4755 10.3769 1.34345C10.3724 1.2114 10.4253 1.09025 10.5355 0.980004C10.6458 0.873587 10.7637 0.819421 10.8894 0.817504C11.015 0.815571 11.133 0.869737 11.2432 0.980004L17.324 7.06078C17.4112 7.14795 17.4724 7.23705 17.5077 7.32808C17.5429 7.4191 17.5605 7.51845 17.5605 7.62615C17.5605 7.73385 17.5429 7.83321 17.5077 7.92423C17.4724 8.01526 17.4112 8.10436 17.324 8.19153L11.2432 14.2723C11.1497 14.3659 11.0359 14.4159 10.9019 14.4223C10.7679 14.4287 10.6458 14.3787 10.5355 14.2723C10.4253 14.1621 10.3702 14.0431 10.3702 13.9156C10.3702 13.788 10.4253 13.6691 10.5355 13.5589L15.9682 8.12615L0.791321 8.3582C0.649005 8.3582 0.530098 8.31045 0.434598 8.21493C0.339081 8.11943 0.291321 8.00052 0.291321 7.8582C0.291321 7.71589 0.339081 7.59698 0.434598 7.50148C0.530099 7.40596 0.649005 7.3582 0.791321 7.3582L15.9682 7.12615Z" fill="white"/>
</svg>
