<svg width="24" height="24" viewBox="0 0 24 24" fill="none" xmlns="http://www.w3.org/2000/svg">
<path d="M9.53937 15.2308C7.94065 15.2308 6.58584 14.6754 5.47494 13.5645C4.36404 12.4536 3.80859 11.0988 3.80859 9.50006C3.80859 7.90135 4.36404 6.54654 5.47494 5.43564C6.58584 4.32474 7.94065 3.76929 9.53937 3.76929C11.1381 3.76929 12.4929 4.32474 13.6038 5.43564C14.7147 6.54654 15.2701 7.90135 15.2701 9.50006C15.2701 10.1949 15.1471 10.8674 14.9009 11.5174C14.6548 12.1674 14.3317 12.7231 13.9317 13.1847L19.8394 19.0924C19.933 19.186 19.983 19.3007 19.9894 19.4366C19.9958 19.5725 19.9458 19.6936 19.8394 19.8001C19.733 19.9065 19.615 19.9597 19.4855 19.9597C19.356 19.9597 19.2381 19.9065 19.1317 19.8001L13.224 13.8924C12.724 14.318 12.149 14.6475 11.499 14.8808C10.849 15.1142 10.1958 15.2308 9.53937 15.2308ZM9.53937 14.2308C10.8663 14.2308 11.9865 13.7741 12.8999 12.8606C13.8134 11.9472 14.2701 10.827 14.2701 9.50006C14.2701 8.17315 13.8134 7.05295 12.8999 6.13949C11.9865 5.22602 10.8663 4.76929 9.53937 4.76929C8.21245 4.76929 7.09226 5.22602 6.17879 6.13949C5.26534 7.05295 4.80862 8.17315 4.80862 9.50006C4.80862 10.827 5.26534 11.9472 6.17879 12.8606C7.09226 13.7741 8.21245 14.2308 9.53937 14.2308Z" fill="white"/>
</svg>
