<svg width="28" height="28" viewBox="0 0 28 28" fill="none" xmlns="http://www.w3.org/2000/svg">
<path d="M22.0853 23.3334C20.1184 23.3334 18.1021 22.8409 16.0365 21.856C13.9709 20.8711 12.0519 19.4887 10.2795 17.7087C8.50702 15.9288 7.12834 14.0098 6.14342 11.9517C5.15849 9.89356 4.66602 7.88106 4.66602 5.91418C4.66602 5.55776 4.78268 5.26076 5.01602 5.02316C5.24935 4.78555 5.54102 4.66675 5.89102 4.66675H8.77627C9.09337 4.66675 9.37008 4.76659 9.60641 4.96626C9.84274 5.16594 10.0028 5.42208 10.0865 5.73469L10.6654 8.51675C10.7192 8.84281 10.7095 9.12775 10.6362 9.37156C10.5629 9.61536 10.4335 9.81503 10.2481 9.97059L7.68812 12.3578C8.16676 13.2268 8.69589 14.0341 9.27549 14.7797C9.85507 15.5254 10.4732 16.2317 11.1298 16.8988C11.8074 17.5764 12.5365 18.2064 13.3173 18.789C14.0981 19.3716 14.9551 19.9217 15.8884 20.4392L18.3833 17.8994C18.5733 17.6945 18.7868 17.5595 19.0239 17.4945C19.2609 17.4294 19.5231 17.4163 19.8103 17.4552L22.2647 17.9578C22.5818 18.0355 22.8391 18.1952 23.0365 18.4368C23.234 18.6783 23.3327 18.9554 23.3327 19.268V22.1084C23.3327 22.4584 23.2139 22.7501 22.9763 22.9834C22.7387 23.2167 22.4417 23.3334 22.0853 23.3334ZM7.14069 11.2629L9.37979 9.20327C9.45457 9.14344 9.50318 9.06118 9.52562 8.95649C9.54806 8.85179 9.54433 8.75456 9.51442 8.66483L8.99613 6.1924C8.96622 6.07274 8.91388 5.98299 8.8391 5.92316C8.76431 5.86333 8.66709 5.83341 8.54743 5.83341H6.15352C6.06378 5.83341 5.989 5.86333 5.92917 5.92316C5.86934 5.98299 5.83942 6.05777 5.83942 6.14751C5.86186 6.94473 5.98675 7.77711 6.21409 8.64464C6.44144 9.51216 6.7503 10.3849 7.14069 11.2629ZM16.999 20.9866C17.7873 21.377 18.6275 21.6657 19.5197 21.8527C20.4119 22.0396 21.1893 22.1398 21.8519 22.1533C21.9417 22.1533 22.0164 22.1234 22.0763 22.0636C22.1361 22.0037 22.166 21.9289 22.166 21.8392V19.4969C22.166 19.3772 22.1361 19.28 22.0763 19.2052C22.0164 19.1304 21.9267 19.0781 21.807 19.0482L19.6487 18.6062C19.559 18.5763 19.4804 18.5725 19.4131 18.595C19.3458 18.6174 19.2748 18.666 19.2 18.7408L16.999 20.9866Z" fill="white"/>
</svg>
