<svg width="38" height="38" viewBox="0 0 38 38" fill="none" xmlns="http://www.w3.org/2000/svg">
<rect width="38" height="38" rx="19" fill="#282828"/>
<path d="M29.0692 14.1551C28.4042 14.4401 27.6442 14.6301 26.8842 14.7251C27.6442 14.2501 28.3092 13.4901 28.5942 12.6351C27.8342 13.1101 27.0742 13.3951 26.1242 13.5851C25.4592 12.8251 24.4142 12.3501 23.3692 12.3501C21.2792 12.3501 19.5692 14.0601 19.5692 16.1501C19.5692 16.4351 19.5692 16.7201 19.6642 17.0051C16.5292 16.8151 13.6792 15.2951 11.7792 13.0151C11.4942 13.5851 11.3042 14.2501 11.3042 14.9151C11.3042 16.2451 11.9692 17.3851 13.0142 18.0501C12.3492 18.0501 11.7792 17.8601 11.3042 17.5751C11.3042 19.3801 12.6342 20.9951 14.3442 21.2801C14.0592 21.3751 13.6792 21.3751 13.2992 21.3751C13.0142 21.3751 12.8242 21.3751 12.5392 21.2801C13.0142 22.8001 14.4392 23.9401 16.1492 23.9401C14.8192 24.9851 13.2042 25.5551 11.3992 25.5551C11.1142 25.5551 10.8292 25.5551 10.4492 25.4601C12.1592 26.5051 14.1542 27.1701 16.3392 27.1701C23.3692 27.1701 27.1692 21.3751 27.1692 16.3401V15.8651C27.9292 15.5801 28.5942 14.9151 29.0692 14.1551Z" fill="white"/>
</svg>
