<svg width="24" height="24" viewBox="0 0 24 24" fill="none" xmlns="http://www.w3.org/2000/svg">
<path d="M18.8461 11.975C18.8461 10.6 18.4777 9.3452 17.7408 8.21045C17.004 7.0757 16.016 6.2267 14.7768 5.66347C14.5845 5.57244 14.4429 5.43654 14.3518 5.25577C14.2608 5.075 14.2497 4.89065 14.3184 4.7027C14.401 4.5022 14.5441 4.36285 14.748 4.28465C14.9518 4.20645 15.1582 4.21285 15.3672 4.30387C16.8749 4.98849 18.0816 6.01849 18.9874 7.39387C19.8931 8.76927 20.346 10.2962 20.346 11.9746C20.346 13.6531 19.8931 15.1801 18.9874 16.5557C18.0816 17.9314 16.8749 18.9615 15.3672 19.6461C15.1582 19.7371 14.9518 19.7435 14.748 19.6653C14.5441 19.5871 14.401 19.4478 14.3184 19.2473C14.2497 19.0593 14.2608 18.875 14.3518 18.6942C14.4429 18.5135 14.5845 18.3776 14.7768 18.2865C16.016 17.7233 17.004 16.8743 17.7408 15.7395C18.4777 14.6048 18.8461 13.3499 18.8461 11.975ZM7.36531 14.5H4.55763C4.30155 14.5 4.08689 14.4133 3.91366 14.2401C3.74043 14.0669 3.65381 13.8522 3.65381 13.5961V10.4039C3.65381 10.1478 3.74043 9.93313 3.91366 9.7599C4.08689 9.58665 4.30155 9.50002 4.55763 9.50002H7.36531L10.3576 6.50775C10.5973 6.26801 10.8733 6.2139 11.1855 6.34542C11.4976 6.47695 11.6537 6.71183 11.6537 7.05005V16.9499C11.6537 17.2882 11.4976 17.523 11.1855 17.6546C10.8733 17.7861 10.5973 17.732 10.3576 17.4922L7.36531 14.5ZM16.1537 12.0011C16.1537 12.6249 16.0243 13.2153 15.7653 13.7722C15.5063 14.3292 15.1573 14.7974 14.7182 15.1769C14.5765 15.2718 14.4278 15.2814 14.272 15.2057C14.1163 15.1301 14.0384 15.0051 14.0384 14.8307V9.11925C14.0384 8.9449 14.1163 8.8199 14.272 8.74425C14.4278 8.66861 14.5765 8.6777 14.7182 8.7715C15.1573 9.16231 15.5063 9.64233 15.7653 10.2115C16.0243 10.7808 16.1537 11.3773 16.1537 12.0011ZM10.1538 8.85L8.00376 11H5.15376V13H8.00376L10.1538 15.15V8.85Z" fill="white"/>
</svg>
