<svg width="38" height="38" viewBox="0 0 38 38" fill="none" xmlns="http://www.w3.org/2000/svg">
<rect width="38" height="38" rx="19" fill="#282828"/>
<path fill-rule="evenodd" clip-rule="evenodd" d="M10.7001 25.704C10.3275 25.5937 9.98748 25.3976 9.70879 25.1321C9.4301 24.8666 9.22091 24.5396 9.09888 24.1787C8.40156 22.313 8.19494 14.5226 9.53794 12.9847C9.98491 12.4844 10.616 12.1764 11.2942 12.1275C14.897 11.7493 26.0284 11.7997 27.3068 12.2535C27.6664 12.3674 27.9949 12.5592 28.2677 12.8147C28.5406 13.0701 28.7507 13.3825 28.8823 13.7284C29.6441 15.6571 29.67 22.666 28.7789 24.519C28.5426 25.0014 28.1469 25.3921 27.6555 25.6283C26.3125 26.2838 12.4822 26.2712 10.7001 25.704ZM16.4208 22.0483L22.8775 18.7708L16.4208 15.468V22.0483Z" fill="white"/>
</svg>
